<?xml version="1.0" standalone="no"?>
<!DOCTYPE svg PUBLIC "-//W3C//DTD SVG 20010904//EN"
 "http://www.w3.org/TR/2001/REC-SVG-20010904/DTD/svg10.dtd">
<svg version="1.0" xmlns="http://www.w3.org/2000/svg"
 width="683.000000pt" height="683.000000pt" viewBox="0 0 683.000000 683.000000"
 preserveAspectRatio="xMidYMid meet">
<metadata>
Created by potrace 1.11, written by Peter Selinger 2001-2013
</metadata>
<g transform="translate(0.000000,683.000000) scale(0.100000,-0.100000)"
fill="#000000" stroke="none">
<path d="M3075 6699 c-635 -64 -1191 -287 -1670 -672 -130 -105 -358 -334
-465 -467 -76 -95 -250 -349 -250 -365 0 -4 -9 -19 -20 -35 -23 -33 -116 -217
-158 -315 -90 -209 -165 -479 -204 -733 -19 -125 -22 -188 -22 -417 -1 -262 3
-317 39 -530 74 -441 271 -898 540 -1253 110 -147 102 -133 80 -148 -63 -43
-279 -211 -282 -219 -4 -14 128 -175 226 -278 226 -235 417 -395 651 -543 86
-55 131 -81 270 -156 76 -41 251 -119 335 -150 44 -16 89 -33 100 -38 54 -24
321 -102 404 -117 14 -2 69 -13 121 -23 341 -66 758 -75 1100 -25 776 115
1451 456 1981 1002 81 84 121 128 228 258 26 32 53 76 49 81 -3 2 -85 54 -184
115 -98 61 -181 113 -183 115 -3 3 67 104 80 114 4 3 48 68 98 145 379 578
545 1268 470 1960 -137 1279 -1105 2349 -2379 2629 -147 33 -229 46 -415 65
-100 11 -433 11 -540 0z"/>
</g>
</svg>
